<?xml version="1.0" standalone="no"?><!DOCTYPE svg PUBLIC "-//W3C//DTD SVG 1.1//EN" "http://www.w3.org/Graphics/SVG/1.1/DTD/svg11.dtd"><svg t="1658321490082" class="icon" viewBox="0 0 1024 1024" version="1.1" xmlns="http://www.w3.org/2000/svg" p-id="5687" xmlns:xlink="http://www.w3.org/1999/xlink" width="16" height="16"><defs><style type="text/css"></style></defs><path d="M1009.0496 343.4496L774.3488 63.8976a63.8976 63.8976 0 0 0-90.112-7.9872l-97.0752 81.92-4.096 1.4336h-142.1312l-4.096-1.4336-97.0752-81.92a63.8976 63.8976 0 0 0-90.112 7.9872L14.9504 343.4496a64.1024 64.1024 0 0 0 7.9872 90.112l131.4816 110.1824a15.9744 15.9744 0 0 1 5.7344 12.288V901.12a81.92 81.92 0 0 0 81.92 81.92h540.0576a81.92 81.92 0 0 0 81.92-81.92V556.032a15.9744 15.9744 0 0 1 5.7344-12.288l131.4816-110.1824a64.1024 64.1024 0 0 0 7.7824-90.112zM782.1312 931.84H241.8688a31.1296 31.1296 0 0 1-30.72-30.72v-130.4576h601.7024V901.12a31.1296 31.1296 0 0 1-30.72 30.72z m186.1632-537.3952l-131.4816 110.1824a66.9696 66.9696 0 0 0-23.9616 51.4048v163.84H211.1488v-163.84a66.9696 66.9696 0 0 0-23.9616-51.4048l-131.4816-110.1824a12.9024 12.9024 0 0 1-1.6384-18.0224L288.768 96.6656a12.6976 12.6976 0 0 1 18.432-1.4336l97.0752 81.92 6.9632 5.7344 8.3968 3.072h4.096l8.3968 3.072h159.9488l8.3968-3.072h4.096l8.3968-3.072 6.9632-5.7344 97.0752-81.92a12.6976 12.6976 0 0 1 18.0224 1.6384l234.7008 279.552a12.9024 12.9024 0 0 1-1.4336 18.0224z" p-id="5688" fill="#d43c33"></path></svg>