<?xml version="1.0" standalone="no"?><!DOCTYPE svg PUBLIC "-//W3C//DTD SVG 1.1//EN" "http://www.w3.org/Graphics/SVG/1.1/DTD/svg11.dtd"><svg t="1658322346197" class="icon" viewBox="0 0 1024 1024" version="1.1" xmlns="http://www.w3.org/2000/svg" p-id="7716" xmlns:xlink="http://www.w3.org/1999/xlink" width="16" height="16"><defs><style type="text/css"></style></defs><path d="M896 128H128a64 64 0 0 0-64 64v672a64 64 0 0 0 64 64h768a64 64 0 0 0 64-64V192a64 64 0 0 0-64-64z m0 64v117.664l-377.44 255.296L128 300.768V192h768zM128 864V378.048l372.64 252.032a31.968 31.968 0 0 0 35.84 0L896 386.912V864H128z" p-id="7717" fill="#d43c33"></path></svg>