<?xml version="1.0" standalone="no"?><!DOCTYPE svg PUBLIC "-//W3C//DTD SVG 1.1//EN" "http://www.w3.org/Graphics/SVG/1.1/DTD/svg11.dtd"><svg t="1658656480787" class="icon" viewBox="0 0 1024 1024" version="1.1" xmlns="http://www.w3.org/2000/svg" p-id="11427" xmlns:xlink="http://www.w3.org/1999/xlink" width="16" height="16"><defs><style type="text/css"></style></defs><path d="M750.336 682.666667l-55.168-55.168a42.666667 42.666667 0 0 1 60.330667-60.330667l128 128a42.666667 42.666667 0 0 1 0 60.330667l-128 128a42.666667 42.666667 0 0 1-60.330667-60.330667L750.336 768H640a42.666667 42.666667 0 0 1-33.28-16L469.333333 580.266667l-137.386666 171.690666A42.666667 42.666667 0 0 1 298.666667 768H170.666667a42.666667 42.666667 0 0 1 0-85.333333h107.52l157.269333-196.608a42.410667 42.410667 0 0 1 1.109333-1.365334l170.112-212.693333A42.666667 42.666667 0 0 1 640 256h110.336l-55.168-55.168a42.666667 42.666667 0 1 1 60.330667-60.330667l128 128a42.666667 42.666667 0 0 1 0 60.330667l-128 128a42.666667 42.666667 0 0 1-60.330667-60.330667L750.336 341.333333H660.48l-136.533333 170.666667 136.533333 170.666667h89.813333zM278.144 341.333333H170.666667a42.666667 42.666667 0 1 1 0-85.333333h128a42.666667 42.666667 0 0 1 33.28 16L392.917333 348.16a42.666667 42.666667 0 1 1-66.602666 53.333333L278.144 341.333333z" p-id="11428" fill="#e6e6e6"></path></svg>